<?xml version="1.0" encoding="UTF-8"?>
<svg id="Layer_2" data-name="Layer 2" xmlns="http://www.w3.org/2000/svg" viewBox="0 0 246.06 235.77">
  <defs>
    <style>
      .cls-1 {
        fill: #fff;
        stroke-width: 0px;
      }
    </style>
  </defs>
  <g id="oBJECTS">
    <g>
      <circle class="cls-1" cx="25.64" cy="4" r="4"/>
      <circle class="cls-1" cx="36.46" cy="4" r="4"/>
      <circle class="cls-1" cx="79.75" cy="4" r="4"/>
      <circle class="cls-1" cx="90.57" cy="4" r="4"/>
      <circle class="cls-1" cx="101.39" cy="4" r="4"/>
      <circle class="cls-1" cx="112.21" cy="4" r="4"/>
      <circle class="cls-1" cx="123.03" cy="4" r="4"/>
      <circle class="cls-1" cx="133.85" cy="4" r="4"/>
      <circle class="cls-1" cx="144.67" cy="4" r="4"/>
      <circle class="cls-1" cx="155.49" cy="4" r="4"/>
      <circle class="cls-1" cx="177.13" cy="4" r="4"/>
      <circle class="cls-1" cx="187.96" cy="4" r="4"/>
      <circle class="cls-1" cx="198.78" cy="4" r="4"/>
      <circle class="cls-1" cx="209.6" cy="4" r="4"/>
      <circle class="cls-1" cx="4" cy="14.85" r="4"/>
      <circle class="cls-1" cx="14.82" cy="14.85" r="4"/>
      <circle class="cls-1" cx="79.75" cy="14.85" r="4"/>
      <circle class="cls-1" cx="90.57" cy="14.85" r="4"/>
      <circle class="cls-1" cx="101.39" cy="14.85" r="4"/>
      <circle class="cls-1" cx="112.21" cy="14.85" r="4"/>
      <circle class="cls-1" cx="123.03" cy="14.85" r="4"/>
      <circle class="cls-1" cx="133.85" cy="14.85" r="4"/>
      <circle class="cls-1" cx="144.67" cy="14.85" r="4"/>
      <circle class="cls-1" cx="155.49" cy="14.85" r="4"/>
      <circle class="cls-1" cx="166.31" cy="14.85" r="4"/>
      <circle class="cls-1" cx="177.13" cy="14.85" r="4"/>
      <circle class="cls-1" cx="187.96" cy="14.85" r="4"/>
      <circle class="cls-1" cx="198.78" cy="14.85" r="4"/>
      <circle class="cls-1" cx="209.6" cy="14.85" r="4"/>
      <circle class="cls-1" cx="79.75" cy="25.69" r="4"/>
      <circle class="cls-1" cx="90.57" cy="25.69" r="4"/>
      <circle class="cls-1" cx="101.39" cy="25.69" r="4"/>
      <circle class="cls-1" cx="112.21" cy="25.69" r="4"/>
      <circle class="cls-1" cx="123.03" cy="25.69" r="4"/>
      <circle class="cls-1" cx="133.85" cy="25.69" r="4"/>
      <circle class="cls-1" cx="144.67" cy="25.69" r="4"/>
      <circle class="cls-1" cx="155.49" cy="25.69" r="4"/>
      <circle class="cls-1" cx="166.31" cy="25.69" r="4"/>
      <circle class="cls-1" cx="177.13" cy="25.69" r="4"/>
      <circle class="cls-1" cx="187.96" cy="25.69" r="4"/>
      <circle class="cls-1" cx="209.6" cy="25.69" r="4"/>
      <circle class="cls-1" cx="220.42" cy="25.69" r="4"/>
      <circle class="cls-1" cx="79.75" cy="36.54" r="4"/>
      <circle class="cls-1" cx="90.57" cy="36.54" r="4"/>
      <circle class="cls-1" cx="101.39" cy="36.54" r="4"/>
      <circle class="cls-1" cx="112.21" cy="36.54" r="4"/>
      <circle class="cls-1" cx="123.03" cy="36.54" r="4"/>
      <circle class="cls-1" cx="133.85" cy="36.54" r="4"/>
      <circle class="cls-1" cx="144.67" cy="36.54" r="4"/>
      <circle class="cls-1" cx="155.49" cy="36.54" r="4"/>
      <circle class="cls-1" cx="166.31" cy="36.54" r="4"/>
      <circle class="cls-1" cx="177.13" cy="36.54" r="4"/>
      <circle class="cls-1" cx="79.75" cy="47.38" r="4"/>
      <circle class="cls-1" cx="90.57" cy="47.38" r="4"/>
      <circle class="cls-1" cx="101.39" cy="47.38" r="4"/>
      <circle class="cls-1" cx="112.21" cy="47.38" r="4"/>
      <circle class="cls-1" cx="123.03" cy="47.38" r="4"/>
      <circle class="cls-1" cx="133.85" cy="47.38" r="4"/>
      <circle class="cls-1" cx="144.67" cy="47.38" r="4"/>
      <circle class="cls-1" cx="155.49" cy="47.38" r="4"/>
      <circle class="cls-1" cx="166.31" cy="47.38" r="4"/>
      <circle class="cls-1" cx="177.13" cy="47.38" r="4"/>
      <circle class="cls-1" cx="79.75" cy="58.23" r="4"/>
      <circle class="cls-1" cx="90.57" cy="58.23" r="4"/>
      <circle class="cls-1" cx="101.39" cy="58.23" r="4"/>
      <circle class="cls-1" cx="112.21" cy="58.23" r="4"/>
      <circle class="cls-1" cx="123.03" cy="58.23" r="4"/>
      <circle class="cls-1" cx="133.85" cy="58.23" r="4"/>
      <circle class="cls-1" cx="144.67" cy="58.23" r="4"/>
      <circle class="cls-1" cx="155.49" cy="58.23" r="4"/>
      <circle class="cls-1" cx="166.31" cy="58.23" r="4"/>
      <circle class="cls-1" cx="90.57" cy="69.08" r="4"/>
      <circle class="cls-1" cx="101.39" cy="69.08" r="4"/>
      <circle class="cls-1" cx="112.21" cy="69.08" r="4"/>
      <circle class="cls-1" cx="123.03" cy="69.08" r="4"/>
      <circle class="cls-1" cx="133.85" cy="69.08" r="4"/>
      <circle class="cls-1" cx="144.67" cy="69.08" r="4"/>
      <circle class="cls-1" cx="155.49" cy="69.08" r="4"/>
      <circle class="cls-1" cx="166.31" cy="69.08" r="4"/>
      <circle class="cls-1" cx="90.57" cy="79.92" r="4"/>
      <circle class="cls-1" cx="101.39" cy="79.92" r="4"/>
      <circle class="cls-1" cx="112.21" cy="79.92" r="4"/>
      <circle class="cls-1" cx="123.03" cy="79.92" r="4"/>
      <circle class="cls-1" cx="144.67" cy="79.92" r="4"/>
      <circle class="cls-1" cx="155.49" cy="79.92" r="4"/>
      <circle class="cls-1" cx="166.31" cy="79.92" r="4"/>
      <circle class="cls-1" cx="90.57" cy="90.77" r="4"/>
      <circle class="cls-1" cx="101.39" cy="90.77" r="4"/>
      <circle class="cls-1" cx="112.21" cy="90.77" r="4"/>
      <circle class="cls-1" cx="123.03" cy="90.77" r="4"/>
      <circle class="cls-1" cx="112.21" cy="101.62" r="4"/>
      <circle class="cls-1" cx="123.03" cy="101.62" r="4"/>
      <circle class="cls-1" cx="133.85" cy="101.62" r="4"/>
      <circle class="cls-1" cx="155.49" cy="101.62" r="4"/>
      <circle class="cls-1" cx="177.13" cy="101.62" r="4"/>
      <circle class="cls-1" cx="187.96" cy="101.62" r="4"/>
      <circle class="cls-1" cx="112.21" cy="112.46" r="4"/>
      <circle class="cls-1" cx="123.03" cy="112.46" r="4"/>
      <circle class="cls-1" cx="133.85" cy="112.46" r="4"/>
      <circle class="cls-1" cx="144.67" cy="112.46" r="4"/>
      <circle class="cls-1" cx="144.67" cy="123.31" r="4"/>
      <circle class="cls-1" cx="166.31" cy="123.31" r="4"/>
      <circle class="cls-1" cx="177.13" cy="123.31" r="4"/>
      <circle class="cls-1" cx="187.96" cy="123.31" r="4"/>
      <circle class="cls-1" cx="155.49" cy="134.15" r="4"/>
      <circle class="cls-1" cx="166.31" cy="134.15" r="4"/>
      <circle class="cls-1" cx="177.13" cy="134.15" r="4"/>
      <circle class="cls-1" cx="187.96" cy="134.15" r="4"/>
      <circle class="cls-1" cx="198.78" cy="134.15" r="4"/>
      <circle class="cls-1" cx="155.49" cy="145" r="4"/>
      <circle class="cls-1" cx="166.31" cy="145" r="4"/>
      <circle class="cls-1" cx="177.13" cy="145" r="4"/>
      <circle class="cls-1" cx="187.96" cy="145" r="4"/>
      <circle class="cls-1" cx="198.78" cy="145" r="4"/>
      <circle class="cls-1" cx="209.6" cy="145" r="4"/>
      <circle class="cls-1" cx="155.49" cy="155.85" r="4"/>
      <circle class="cls-1" cx="166.31" cy="155.85" r="4"/>
      <circle class="cls-1" cx="177.13" cy="155.85" r="4"/>
      <circle class="cls-1" cx="187.96" cy="155.85" r="4"/>
      <circle class="cls-1" cx="198.78" cy="155.85" r="4"/>
      <circle class="cls-1" cx="209.6" cy="155.85" r="4"/>
      <circle class="cls-1" cx="220.42" cy="155.85" r="4"/>
      <circle class="cls-1" cx="155.49" cy="166.69" r="4"/>
      <circle class="cls-1" cx="166.31" cy="166.69" r="4"/>
      <circle class="cls-1" cx="177.13" cy="166.69" r="4"/>
      <circle class="cls-1" cx="187.96" cy="166.69" r="4"/>
      <circle class="cls-1" cx="198.78" cy="166.69" r="4"/>
      <circle class="cls-1" cx="209.6" cy="166.69" r="4"/>
      <circle class="cls-1" cx="220.42" cy="166.69" r="4"/>
      <circle class="cls-1" cx="231.24" cy="166.69" r="4"/>
      <circle class="cls-1" cx="242.06" cy="166.69" r="4"/>
      <circle class="cls-1" cx="155.49" cy="177.54" r="4"/>
      <circle class="cls-1" cx="166.31" cy="177.54" r="4"/>
      <circle class="cls-1" cx="177.13" cy="177.54" r="4"/>
      <circle class="cls-1" cx="187.96" cy="177.54" r="4"/>
      <circle class="cls-1" cx="198.78" cy="177.54" r="4"/>
      <circle class="cls-1" cx="209.6" cy="177.54" r="4"/>
      <circle class="cls-1" cx="220.42" cy="177.54" r="4"/>
      <circle class="cls-1" cx="231.24" cy="177.54" r="4"/>
      <circle class="cls-1" cx="242.06" cy="177.54" r="4"/>
      <circle class="cls-1" cx="166.31" cy="188.38" r="4"/>
      <circle class="cls-1" cx="177.13" cy="188.38" r="4"/>
      <circle class="cls-1" cx="187.96" cy="188.38" r="4"/>
      <circle class="cls-1" cx="198.78" cy="188.38" r="4"/>
      <circle class="cls-1" cx="209.6" cy="188.38" r="4"/>
      <circle class="cls-1" cx="220.42" cy="188.38" r="4"/>
      <circle class="cls-1" cx="231.24" cy="188.38" r="4"/>
      <circle class="cls-1" cx="242.06" cy="188.38" r="4"/>
      <circle class="cls-1" cx="177.13" cy="199.23" r="4"/>
      <circle class="cls-1" cx="187.96" cy="199.23" r="4"/>
      <circle class="cls-1" cx="198.78" cy="199.23" r="4"/>
      <circle class="cls-1" cx="209.6" cy="199.23" r="4"/>
      <circle class="cls-1" cx="220.42" cy="199.23" r="4"/>
      <circle class="cls-1" cx="231.24" cy="199.23" r="4"/>
      <circle class="cls-1" cx="177.13" cy="210.08" r="4"/>
      <circle class="cls-1" cx="187.96" cy="210.08" r="4"/>
      <circle class="cls-1" cx="198.78" cy="210.08" r="4"/>
      <circle class="cls-1" cx="209.6" cy="210.08" r="4"/>
      <circle class="cls-1" cx="220.42" cy="210.08" r="4"/>
      <circle class="cls-1" cx="231.24" cy="210.08" r="4"/>
      <circle class="cls-1" cx="177.13" cy="220.92" r="4"/>
      <circle class="cls-1" cx="187.96" cy="220.92" r="4"/>
      <circle class="cls-1" cx="198.78" cy="220.92" r="4"/>
      <circle class="cls-1" cx="209.6" cy="220.92" r="4"/>
      <circle class="cls-1" cx="220.42" cy="220.92" r="4"/>
      <circle class="cls-1" cx="177.13" cy="231.77" r="4"/>
      <circle class="cls-1" cx="187.96" cy="231.77" r="4"/>
      <circle class="cls-1" cx="198.78" cy="231.77" r="4"/>
      <circle class="cls-1" cx="209.6" cy="231.77" r="4"/>
      <circle class="cls-1" cx="220.42" cy="231.77" r="4"/>
    </g>
  </g>
</svg>